<svg xmlns="http://www.w3.org/2000/svg" xmlns:xlink="http://www.w3.org/1999/xlink" version="1.1" width="256" height="256" viewBox="0 0 256 256" xml:space="preserve">
<g style="stroke: none; stroke-width: 0; stroke-dasharray: none; stroke-linecap: butt; stroke-linejoin: miter; stroke-miterlimit: 10; fill: none; fill-rule: nonzero; opacity: 1;" transform="translate(1.4065934065934016 1.4065934065934016) scale(2.81 2.81)">
	<path d="M 52.182 90 c -1.408 0 -2.808 -0.592 -3.797 -1.744 L 15.363 49.774 c -1.272 -1.482 -1.564 -3.569 -0.749 -5.344 c 0.815 -1.775 2.59 -2.912 4.543 -2.912 h 18.763 c 8.69 0 15.76 -7.069 15.76 -15.759 C 53.681 17.07 46.611 10 37.921 10 H 19.158 c -2.761 0 -5 -2.239 -5 -5 s 2.239 -5 5 -5 h 18.763 c 14.204 0 25.76 11.556 25.76 25.759 s -11.556 25.759 -25.76 25.759 h -7.884 l 25.937 30.226 c 1.799 2.096 1.558 5.252 -0.538 7.051 C 54.492 89.604 53.334 90 52.182 90 z" style="stroke: none; stroke-width: 1; stroke-dasharray: none; stroke-linecap: butt; stroke-linejoin: miter; stroke-miterlimit: 10; fill: rgb(59,98,209); fill-rule: nonzero; opacity: 1;" transform=" matrix(1 0 0 1 0 0) " stroke-linecap="round"/>
	<path d="M 70.842 10 H 19.158 c -2.761 0 -5 -2.239 -5 -5 s 2.239 -5 5 -5 h 51.684 c 2.762 0 5 2.239 5 5 S 73.604 10 70.842 10 z" style="stroke: none; stroke-width: 1; stroke-dasharray: none; stroke-linecap: butt; stroke-linejoin: miter; stroke-miterlimit: 10; fill: rgb(59,98,209); fill-rule: nonzero; opacity: 1;" transform=" matrix(1 0 0 1 0 0) " stroke-linecap="round"/>
	<path d="M 70.842 30.759 H 19.158 c -2.761 0 -5 -2.239 -5 -5 s 2.239 -5 5 -5 h 51.684 c 2.762 0 5 2.239 5 5 S 73.604 30.759 70.842 30.759 z" style="stroke: none; stroke-width: 1; stroke-dasharray: none; stroke-linecap: butt; stroke-linejoin: miter; stroke-miterlimit: 10; fill: rgb(59,98,209); fill-rule: nonzero; opacity: 1;" transform=" matrix(1 0 0 1 0 0) " stroke-linecap="round"/>
</g>
</svg>